<?xml version="1.0" encoding="UTF-8" standalone="no"?>
<!DOCTYPE svg PUBLIC "-//W3C//DTD SVG 1.1//EN" "http://www.w3.org/Graphics/SVG/1.1/DTD/svg11.dtd">
<svg width="100%" height="100%" viewBox="0 0 300 104" version="1.1" xmlns="http://www.w3.org/2000/svg" xmlns:xlink="http://www.w3.org/1999/xlink" xml:space="preserve" xmlns:serif="http://www.serif.com/" style="fill-rule:evenodd;clip-rule:evenodd;stroke-linejoin:round;stroke-miterlimit:2;">
    <g transform="matrix(1,0,0,1,-221.412,-235.896)">
        <g>
            <g>
                <g transform="matrix(0.783166,0,0,0.783166,-36.0783,84.7442)">
                    <path d="M374.274,275.704L374.274,325.307L364.85,325.307L340.119,295.191L340.119,325.307L328.781,325.307L328.781,275.704L338.276,275.704L362.936,305.82L362.936,275.704L374.274,275.704Z" style="fill:white;fill-rule:nonzero;"/>
                    <path d="M424.445,316.095L424.445,325.307L386.038,325.307L386.038,275.704L423.524,275.704L423.524,284.916L397.446,284.916L397.446,295.687L420.477,295.687L420.477,304.615L397.446,304.615L397.446,316.095L424.445,316.095Z" style="fill:white;fill-rule:nonzero;"/>
                    <path d="M443.861,285.057L427.988,285.057L427.988,275.704L471.214,275.704L471.214,285.057L455.341,285.057L455.341,325.307L443.861,325.307L443.861,285.057Z" style="fill:white;fill-rule:nonzero;"/>
                    <path d="M551.431,275.704L535.203,325.307L522.873,325.307L511.96,291.718L500.693,325.307L488.434,325.307L472.136,275.704L484.041,275.704L495.237,310.568L506.929,275.704L517.559,275.704L528.897,310.851L540.447,275.704L551.431,275.704Z" style="fill:white;fill-rule:nonzero;"/>
                    <g transform="matrix(1,0,0,1,-4.68253,1.42109e-13)">
                        <path d="M648.654,325.307L639.088,311.489L628.529,311.489L628.529,325.307L617.05,325.307L617.05,275.704L638.521,275.704C642.914,275.704 646.729,276.436 649.965,277.9C653.201,279.365 655.693,281.443 657.441,284.136C659.189,286.829 660.063,290.018 660.063,293.703C660.063,297.388 659.177,300.565 657.406,303.234C655.634,305.903 653.119,307.946 649.859,309.363L660.984,325.307L648.654,325.307ZM648.442,293.703C648.442,290.915 647.544,288.778 645.749,287.29C643.954,285.801 641.332,285.057 637.883,285.057L628.529,285.057L628.529,302.348L637.883,302.348C641.332,302.348 643.954,301.592 645.749,300.08C647.544,298.569 648.442,296.443 648.442,293.703Z" style="fill:white;fill-rule:nonzero;"/>
                    </g>
                    <g transform="matrix(1,0,0,1,-4.68253,1.42109e-13)">
                        <path d="M687.204,305.82L680.542,312.765L680.542,325.307L669.134,325.307L669.134,275.704L680.542,275.704L680.542,298.876L702.51,275.704L715.265,275.704L694.715,297.813L716.47,325.307L703.077,325.307L687.204,305.82Z" style="fill:white;fill-rule:nonzero;"/>
                    </g>
                </g>
                <g transform="matrix(0.439712,0,0,0.439712,236.146,235.788)">
                    <circle cx="412.633" cy="191.722" r="44.174" style="fill:white;"/>
                    <path d="M412.633,147.547C437.014,147.547 456.808,167.341 456.808,191.722C456.808,216.102 437.014,235.896 412.633,235.896C388.253,235.896 368.459,216.102 368.459,191.722C368.459,167.341 388.253,147.547 412.633,147.547ZM412.633,160.172C430.046,160.172 444.183,174.309 444.183,191.722C444.183,209.135 430.046,223.272 412.633,223.272C395.22,223.272 381.083,209.135 381.083,191.722C381.083,174.309 395.22,160.172 412.633,160.172Z" style="fill:white;"/>
                </g>
                <g transform="matrix(0.30511,0,0,0.30511,311.686,218.568)">
                    <path d="M347.006,285.584C347.063,285.527 379.679,329.192 379.679,347.225C379.679,365.257 365.039,379.897 347.006,379.897C328.974,379.897 314.334,365.257 314.334,347.225C314.334,329.192 346.95,285.641 347.006,285.584Z" style="fill:rgb(255,0,53);"/>
                    <path d="M347.006,285.584C347.063,285.527 379.679,329.192 379.679,347.225C379.679,365.257 365.039,379.897 347.006,379.897C328.974,379.897 314.334,365.257 314.334,347.225C314.334,329.192 346.95,285.641 347.006,285.584ZM347.024,297.275C352.794,305.525 361.823,319.159 367.662,331.335C370.603,337.467 372.84,343.102 372.84,347.225C372.84,361.483 361.264,373.058 347.006,373.058C332.748,373.058 321.173,361.483 321.173,347.225C321.173,340.807 326.181,330.901 331.756,321.147C336.933,312.089 342.843,303.264 347.024,297.275Z"/>
                </g>
                <g transform="matrix(0.402559,0,0,0.402559,409.688,331.823)">
                    <path d="M32.121,2.284L19.558,-14.385L6.698,2.457L2.662,-1.67L15.802,-19.204L2.779,-36.153L6.212,-41.574L19.629,-24.022L33.305,-42.038L36.208,-36.086L23.172,-19.204L36.575,-1.989L32.121,2.284Z" style="fill-rule:nonzero;"/>
                </g>
            </g>
            <g>
                <g transform="matrix(5.90522,0,0,5.90522,-1360.47,-1131.53)">
                    <path d="M283.357,231.563L283.357,240.467L282.253,240.467L282.253,239.459C281.997,239.811 281.673,240.079 281.281,240.263C280.889,240.447 280.457,240.539 279.985,240.539C279.369,240.539 278.817,240.403 278.329,240.131C277.841,239.859 277.459,239.477 277.183,238.985C276.907,238.493 276.769,237.927 276.769,237.287C276.769,236.647 276.907,236.083 277.183,235.595C277.459,235.107 277.841,234.727 278.329,234.455C278.817,234.183 279.369,234.047 279.985,234.047C280.441,234.047 280.861,234.133 281.245,234.305C281.629,234.477 281.949,234.731 282.205,235.067L282.205,231.563L283.357,231.563ZM280.081,239.531C280.481,239.531 280.845,239.437 281.173,239.249C281.501,239.061 281.757,238.797 281.941,238.457C282.125,238.117 282.217,237.727 282.217,237.287C282.217,236.847 282.125,236.457 281.941,236.117C281.757,235.777 281.501,235.515 281.173,235.331C280.845,235.147 280.481,235.055 280.081,235.055C279.673,235.055 279.307,235.147 278.983,235.331C278.659,235.515 278.403,235.777 278.215,236.117C278.027,236.457 277.933,236.847 277.933,237.287C277.933,237.727 278.027,238.117 278.215,238.457C278.403,238.797 278.659,239.061 278.983,239.249C279.307,239.437 279.673,239.531 280.081,239.531Z" style="fill:white;fill-rule:nonzero;"/>
                    <path d="M291.289,237.323C291.289,237.411 291.281,237.527 291.265,237.671L286.105,237.671C286.177,238.231 286.423,238.681 286.843,239.021C287.263,239.361 287.785,239.531 288.409,239.531C289.169,239.531 289.781,239.275 290.245,238.763L290.881,239.507C290.593,239.843 290.235,240.099 289.807,240.275C289.379,240.451 288.901,240.539 288.373,240.539C287.701,240.539 287.105,240.401 286.585,240.125C286.065,239.849 285.663,239.463 285.379,238.967C285.095,238.471 284.953,237.911 284.953,237.287C284.953,236.671 285.091,236.115 285.367,235.619C285.643,235.123 286.023,234.737 286.507,234.461C286.991,234.185 287.537,234.047 288.145,234.047C288.753,234.047 289.295,234.185 289.771,234.461C290.247,234.737 290.619,235.123 290.887,235.619C291.155,236.115 291.289,236.683 291.289,237.323ZM288.145,235.019C287.593,235.019 287.131,235.187 286.759,235.523C286.387,235.859 286.169,236.299 286.105,236.843L290.185,236.843C290.121,236.307 289.903,235.869 289.531,235.529C289.159,235.189 288.697,235.019 288.145,235.019Z" style="fill:white;fill-rule:nonzero;"/>
                    <path d="M296.461,240.095C296.293,240.239 296.085,240.349 295.837,240.425C295.589,240.501 295.333,240.539 295.069,240.539C294.429,240.539 293.933,240.367 293.581,240.023C293.229,239.679 293.053,239.187 293.053,238.547L293.053,235.055L291.973,235.055L291.973,234.107L293.053,234.107L293.053,232.715L294.205,232.715L294.205,234.107L296.029,234.107L296.029,235.055L294.205,235.055L294.205,238.499C294.205,238.843 294.291,239.107 294.463,239.291C294.635,239.475 294.881,239.567 295.201,239.567C295.553,239.567 295.853,239.467 296.101,239.267L296.461,240.095Z" style="fill:white;fill-rule:nonzero;"/>
                    <path d="M300.361,240.539C299.729,240.539 299.161,240.399 298.657,240.119C298.153,239.839 297.759,239.453 297.475,238.961C297.191,238.469 297.049,237.911 297.049,237.287C297.049,236.663 297.191,236.105 297.475,235.613C297.759,235.121 298.153,234.737 298.657,234.461C299.161,234.185 299.729,234.047 300.361,234.047C300.993,234.047 301.559,234.185 302.059,234.461C302.559,234.737 302.951,235.121 303.235,235.613C303.519,236.105 303.661,236.663 303.661,237.287C303.661,237.911 303.519,238.469 303.235,238.961C302.951,239.453 302.559,239.839 302.059,240.119C301.559,240.399 300.993,240.539 300.361,240.539ZM300.361,239.531C300.769,239.531 301.135,239.437 301.459,239.249C301.783,239.061 302.037,238.797 302.221,238.457C302.405,238.117 302.497,237.727 302.497,237.287C302.497,236.847 302.405,236.457 302.221,236.117C302.037,235.777 301.783,235.515 301.459,235.331C301.135,235.147 300.769,235.055 300.361,235.055C299.953,235.055 299.587,235.147 299.263,235.331C298.939,235.515 298.683,235.777 298.495,236.117C298.307,236.457 298.213,236.847 298.213,237.287C298.213,237.727 298.307,238.117 298.495,238.457C298.683,238.797 298.939,239.061 299.263,239.249C299.587,239.437 299.953,239.531 300.361,239.531Z" style="fill:white;fill-rule:nonzero;"/>
                    <path d="M309.097,240.467L307.261,238.031L305.401,240.467L304.117,240.467L306.625,237.215L304.237,234.107L305.521,234.107L307.273,236.399L309.013,234.107L310.273,234.107L307.873,237.215L310.405,240.467L309.097,240.467Z" style="fill:rgb(255,0,53);fill-rule:nonzero;"/>
                </g>
                <g transform="matrix(1.20833,0,0,1.35417,-62.8465,-96.3571)">
                    <circle cx="294.482" cy="269.436" r="11.884" style="fill:white;"/>
                </g>
            </g>
        </g>
    </g>
</svg>
