<?xml version="1.0" encoding="UTF-8" standalone="no"?>
<!DOCTYPE svg PUBLIC "-//W3C//DTD SVG 1.1//EN" "http://www.w3.org/Graphics/SVG/1.1/DTD/svg11.dtd">
<svg width="100%" height="100%" viewBox="0 0 89 89" version="1.1" xmlns="http://www.w3.org/2000/svg" xmlns:xlink="http://www.w3.org/1999/xlink" xml:space="preserve" xmlns:serif="http://www.serif.com/" style="fill-rule:evenodd;clip-rule:evenodd;stroke-linejoin:round;stroke-miterlimit:2;">
    <g transform="matrix(1,0,0,1,-322.465,-137.262)">
        <g transform="matrix(1,0,0,1,-45.9933,-10.2854)">
            <circle cx="412.633" cy="191.722" r="44.174"/>
            <path d="M412.633,147.547C437.014,147.547 456.808,167.341 456.808,191.722C456.808,216.102 437.014,235.896 412.633,235.896C388.253,235.896 368.459,216.102 368.459,191.722C368.459,167.341 388.253,147.547 412.633,147.547ZM412.633,153.098C433.95,153.098 451.256,170.405 451.256,191.722C451.256,213.038 433.95,230.345 412.633,230.345C391.316,230.345 374.01,213.038 374.01,191.722C374.01,170.405 391.316,153.098 412.633,153.098Z"/>
        </g>
        <g transform="matrix(0.693885,0,0,0.693885,125.857,-49.4475)">
            <path d="M347.006,285.584C347.063,285.527 379.679,329.192 379.679,347.225C379.679,365.257 365.039,379.897 347.006,379.897C328.974,379.897 314.334,365.257 314.334,347.225C314.334,329.192 346.95,285.641 347.006,285.584Z" style="fill:rgb(255,0,53);"/>
            <path d="M347.006,285.584C347.063,285.527 379.679,329.192 379.679,347.225C379.679,365.257 365.039,379.897 347.006,379.897C328.974,379.897 314.334,365.257 314.334,347.225C314.334,329.192 346.95,285.641 347.006,285.584ZM347.024,299.313C351.617,305.946 357.87,315.441 363.019,324.858C367.669,333.362 371.679,341.648 371.679,347.225C371.679,360.842 360.623,371.897 347.006,371.897C333.389,371.897 322.334,360.842 322.334,347.225C322.334,340.942 327.306,331.272 332.764,321.723C337.54,313.368 342.94,305.212 347.024,299.313Z" style="fill:white;"/>
        </g>
        <g transform="matrix(0.915506,0,0,0.915506,348.734,208.119)">
            <path d="M32.121,2.284L19.558,-14.385L6.698,2.457L2.662,-1.67L15.802,-19.204L2.779,-36.153L6.212,-41.574L19.629,-24.022L33.305,-42.038L36.208,-36.086L23.172,-19.204L36.575,-1.989L32.121,2.284Z" style="fill:white;fill-rule:nonzero;"/>
        </g>
    </g>
</svg>
