<?xml version="1.0" encoding="UTF-8" standalone="no"?>
<!DOCTYPE svg PUBLIC "-//W3C//DTD SVG 1.1//EN" "http://www.w3.org/Graphics/SVG/1.1/DTD/svg11.dtd">
<svg width="100%" height="100%" viewBox="0 0 439 431" version="1.1" xmlns="http://www.w3.org/2000/svg" xmlns:xlink="http://www.w3.org/1999/xlink" xml:space="preserve" xmlns:serif="http://www.serif.com/" style="fill-rule:evenodd;clip-rule:evenodd;stroke-linejoin:round;stroke-miterlimit:2;">
    <g transform="matrix(1,0,0,1,-180.851,-84.7423)">
        <path d="M612.375,264.719C614.272,276.206 615.258,287.989 615.258,300C615.258,418.804 518.804,515.258 400,515.258C363.515,515.258 329.138,506.161 299.02,490.116L381.298,393.069C421.215,426.262 477.425,423.893 511.087,384.189L510.956,384.335L511.224,384.027L612.375,264.719ZM541.091,137.481C564.025,157.409 582.707,182.111 595.583,210.032L474.479,352.875C458.23,372.041 430.818,371.912 411.651,355.662C408.011,352.576 405.142,348.751 402.985,344.541C399.313,337.377 392.306,332.521 384.309,331.598C376.312,330.676 368.383,333.81 363.177,339.95L259.112,462.696C236.159,442.8 217.451,418.13 204.541,390.238L327.166,245.6C341.315,228.911 366.8,227.785 383.891,242.274C388.866,246.492 392.94,251.746 395.976,257.504C399.707,264.58 406.709,269.342 414.662,270.212C422.614,271.082 430.48,267.947 435.654,261.845L541.091,137.481ZM187.683,335.629C185.748,324.027 184.742,312.13 184.742,300C184.742,181.196 281.196,84.742 400,84.742C436.58,84.742 471.041,93.886 501.223,110.013L418.014,208.158L418.014,208.158C417.042,207.262 416.052,206.385 415.043,205.53C377.465,173.671 321.533,177.752 290.422,214.448L187.683,335.629Z" style="fill:rgb(121,0,255);"/>
        <path d="M474.479,352.875C458.23,372.041 430.818,371.912 411.651,355.662C408.011,352.576 405.142,348.751 402.985,344.541C399.313,337.377 392.306,332.521 384.309,331.598C376.312,330.676 368.383,333.81 363.177,339.95L257.633,464.44C241.383,483.607 214.108,483.315 194.941,467.066C178.087,452.776 176.166,424.23 190.192,407.164C190.236,407.11 327.166,245.6 327.166,245.6C341.315,228.911 366.8,227.785 383.891,242.274C388.866,246.492 392.94,251.746 395.976,257.504C399.707,264.58 406.709,269.342 414.662,270.212C422.614,271.082 430.48,267.947 435.654,261.845L543.876,134.196C558.025,117.507 583.51,116.381 600.6,130.871C618.208,145.799 626.294,173.808 611.366,191.416L474.479,352.875L485.175,376.233L474.479,352.875Z" style="fill:rgb(0,212,255);"/>
    </g>
</svg>
